<svg width="1316" height="348" viewBox="0 0 1316 348" fill="none" xmlns="http://www.w3.org/2000/svg">
<g filter="url(#filter0_d_135_1035)">
<path d="M600.655 172.581C600.655 173.812 600.445 174.939 600.025 175.961C599.605 176.983 598.968 177.872 598.114 178.627C597.274 179.369 596.204 179.95 594.902 180.37C593.6 180.79 591.913 181 589.842 181H582.682C582.178 181 581.765 180.867 581.443 180.601C581.135 180.321 580.981 179.852 580.981 179.194V155.574C580.981 154.958 581.135 154.517 581.443 154.251C581.765 153.971 582.157 153.831 582.619 153.831H597.988C598.128 153.831 598.247 153.866 598.345 153.936C598.457 154.006 598.548 154.132 598.618 154.314C598.702 154.482 598.758 154.706 598.786 154.986C598.828 155.252 598.849 155.595 598.849 156.015C598.849 156.407 598.828 156.743 598.786 157.022C598.758 157.288 598.702 157.512 598.618 157.694C598.548 157.862 598.457 157.988 598.345 158.072C598.247 158.142 598.135 158.177 598.009 158.177H586.503V164.938H591.018C592.767 164.938 594.209 165.106 595.343 165.442C596.477 165.778 597.435 166.275 598.219 166.933C599.003 167.59 599.605 168.395 600.025 169.347C600.445 170.299 600.655 171.377 600.655 172.581ZM595.049 172.938C595.049 172.336 594.951 171.797 594.755 171.321C594.559 170.831 594.272 170.418 593.894 170.082C593.516 169.732 593.026 169.466 592.424 169.284C591.836 169.102 591.046 169.011 590.052 169.011H586.503V176.843H590.115C591.011 176.843 591.745 176.759 592.319 176.591C592.907 176.423 593.397 176.171 593.789 175.835C594.181 175.499 594.489 175.086 594.713 174.596C594.937 174.106 595.049 173.553 595.049 172.938ZM626.606 178.942C626.774 179.446 626.879 179.845 626.921 180.139C626.963 180.433 626.907 180.657 626.753 180.811C626.599 180.951 626.326 181.035 625.934 181.063C625.542 181.105 625.003 181.126 624.317 181.126C623.604 181.126 623.044 181.112 622.638 181.084C622.246 181.07 621.945 181.035 621.735 180.979C621.525 180.909 621.378 180.818 621.294 180.706C621.21 180.594 621.14 180.447 621.084 180.265L619.257 174.806H609.053L607.332 180.118C607.276 180.314 607.199 180.482 607.101 180.622C607.017 180.748 606.87 180.853 606.66 180.937C606.464 181.007 606.177 181.056 605.799 181.084C605.435 181.112 604.952 181.126 604.35 181.126C603.706 181.126 603.202 181.105 602.838 181.063C602.474 181.021 602.222 180.923 602.083 180.769C601.943 180.601 601.894 180.37 601.936 180.076C601.978 179.782 602.083 179.39 602.25 178.9L610.628 154.797C610.712 154.559 610.81 154.37 610.922 154.23C611.034 154.076 611.209 153.964 611.447 153.894C611.699 153.81 612.042 153.761 612.476 153.747C612.91 153.719 613.483 153.705 614.197 153.705C615.023 153.705 615.681 153.719 616.171 153.747C616.661 153.761 617.039 153.81 617.305 153.894C617.585 153.964 617.781 154.076 617.893 154.23C618.019 154.384 618.124 154.594 618.208 154.86L626.606 178.942ZM614.134 159.017H614.113L610.271 170.565H617.977L614.134 159.017ZM651.633 180.244C651.633 180.384 651.584 180.51 651.486 180.622C651.402 180.734 651.255 180.825 651.045 180.895C650.835 180.965 650.556 181.021 650.206 181.063C649.856 181.105 649.415 181.126 648.883 181.126C648.337 181.126 647.882 181.105 647.518 181.063C647.168 181.021 646.888 180.965 646.678 180.895C646.482 180.825 646.335 180.734 646.237 180.622C646.153 180.51 646.111 180.384 646.111 180.244V169.263H635.949V180.244C635.949 180.384 635.907 180.51 635.823 180.622C635.739 180.734 635.592 180.825 635.382 180.895C635.172 180.965 634.892 181.021 634.542 181.063C634.193 181.105 633.745 181.126 633.199 181.126C632.667 181.126 632.219 181.105 631.855 181.063C631.505 181.021 631.225 180.965 631.015 180.895C630.805 180.825 630.651 180.734 630.553 180.622C630.469 180.51 630.427 180.384 630.427 180.244V154.587C630.427 154.447 630.469 154.321 630.553 154.209C630.651 154.097 630.805 154.006 631.015 153.936C631.225 153.866 631.505 153.81 631.855 153.768C632.219 153.726 632.667 153.705 633.199 153.705C633.745 153.705 634.193 153.726 634.542 153.768C634.892 153.81 635.172 153.866 635.382 153.936C635.592 154.006 635.739 154.097 635.823 154.209C635.907 154.321 635.949 154.447 635.949 154.587V164.56H646.111V154.587C646.111 154.447 646.153 154.321 646.237 154.209C646.335 154.097 646.482 154.006 646.678 153.936C646.888 153.866 647.168 153.81 647.518 153.768C647.882 153.726 648.337 153.705 648.883 153.705C649.415 153.705 649.856 153.726 650.206 153.768C650.556 153.81 650.835 153.866 651.045 153.936C651.255 154.006 651.402 154.097 651.486 154.209C651.584 154.321 651.633 154.447 651.633 154.587V180.244ZM678.76 180.244C678.76 180.384 678.711 180.51 678.613 180.622C678.529 180.734 678.382 180.825 678.172 180.895C677.962 180.965 677.682 181.021 677.333 181.063C676.983 181.105 676.542 181.126 676.01 181.126C675.464 181.126 675.009 181.105 674.645 181.063C674.295 181.021 674.015 180.965 673.805 180.895C673.609 180.825 673.462 180.734 673.364 180.622C673.28 180.51 673.238 180.384 673.238 180.244V169.263H663.076V180.244C663.076 180.384 663.034 180.51 662.95 180.622C662.866 180.734 662.719 180.825 662.509 180.895C662.299 180.965 662.019 181.021 661.669 181.063C661.319 181.105 660.872 181.126 660.326 181.126C659.794 181.126 659.346 181.105 658.982 181.063C658.632 181.021 658.352 180.965 658.142 180.895C657.932 180.825 657.778 180.734 657.68 180.622C657.596 180.51 657.554 180.384 657.554 180.244V154.587C657.554 154.447 657.596 154.321 657.68 154.209C657.778 154.097 657.932 154.006 658.142 153.936C658.352 153.866 658.632 153.81 658.982 153.768C659.346 153.726 659.794 153.705 660.326 153.705C660.872 153.705 661.319 153.726 661.669 153.768C662.019 153.81 662.299 153.866 662.509 153.936C662.719 154.006 662.866 154.097 662.95 154.209C663.034 154.321 663.076 154.447 663.076 154.587V164.56H673.238V154.587C673.238 154.447 673.28 154.321 673.364 154.209C673.462 154.097 673.609 154.006 673.805 153.936C674.015 153.866 674.295 153.81 674.645 153.768C675.009 153.726 675.464 153.705 676.01 153.705C676.542 153.705 676.983 153.726 677.333 153.768C677.682 153.81 677.962 153.866 678.172 153.936C678.382 154.006 678.529 154.097 678.613 154.209C678.711 154.321 678.76 154.447 678.76 154.587V180.244ZM700.785 178.837C700.785 179.243 700.764 179.586 700.722 179.866C700.694 180.132 700.645 180.349 700.575 180.517C700.505 180.685 700.414 180.811 700.302 180.895C700.204 180.965 700.092 181 699.966 181H686.319C685.857 181 685.465 180.867 685.143 180.601C684.835 180.321 684.681 179.873 684.681 179.257V155.574C684.681 154.958 684.835 154.517 685.143 154.251C685.465 153.971 685.857 153.831 686.319 153.831H699.882C700.008 153.831 700.12 153.866 700.218 153.936C700.316 154.006 700.4 154.132 700.47 154.314C700.54 154.482 700.589 154.706 700.617 154.986C700.659 155.252 700.68 155.595 700.68 156.015C700.68 156.407 700.659 156.743 700.617 157.022C700.589 157.288 700.54 157.505 700.47 157.673C700.4 157.841 700.316 157.967 700.218 158.051C700.12 158.121 700.008 158.156 699.882 158.156H690.182V164.791H698.392C698.518 164.791 698.63 164.833 698.728 164.917C698.84 164.987 698.931 165.106 699 165.274C699.07 165.428 699.119 165.645 699.147 165.925C699.189 166.191 699.21 166.52 699.21 166.912C699.21 167.318 699.189 167.653 699.147 167.919C699.119 168.185 699.07 168.402 699 168.57C698.931 168.724 698.84 168.836 698.728 168.906C698.63 168.976 698.518 169.011 698.392 169.011H690.182V176.675H699.966C700.092 176.675 700.204 176.717 700.302 176.801C700.414 176.871 700.505 176.99 700.575 177.158C700.645 177.326 700.694 177.55 700.722 177.83C700.764 178.096 700.785 178.431 700.785 178.837ZM724.28 162.083C724.28 163.608 724.042 164.959 723.566 166.135C723.09 167.311 722.397 168.304 721.487 169.116C720.577 169.914 719.458 170.523 718.128 170.943C716.812 171.363 715.258 171.573 713.467 171.573H711.199V180.244C711.199 180.384 711.15 180.51 711.052 180.622C710.968 180.734 710.821 180.825 710.611 180.895C710.401 180.965 710.121 181.021 709.771 181.063C709.422 181.105 708.974 181.126 708.428 181.126C707.896 181.126 707.448 181.105 707.084 181.063C706.734 181.021 706.454 180.965 706.244 180.895C706.034 180.825 705.887 180.734 705.803 180.622C705.719 180.51 705.677 180.384 705.677 180.244V155.805C705.677 155.147 705.845 154.657 706.181 154.335C706.531 153.999 706.986 153.831 707.546 153.831H713.95C714.594 153.831 715.202 153.859 715.776 153.915C716.364 153.957 717.064 154.062 717.876 154.23C718.688 154.384 719.507 154.678 720.333 155.112C721.172 155.546 721.886 156.099 722.474 156.771C723.062 157.428 723.51 158.205 723.818 159.101C724.126 159.983 724.28 160.977 724.28 162.083ZM718.506 162.481C718.506 161.53 718.338 160.746 718.002 160.13C717.666 159.514 717.253 159.059 716.763 158.765C716.273 158.471 715.755 158.289 715.209 158.219C714.678 158.135 714.125 158.093 713.551 158.093H711.199V167.311H713.677C714.559 167.311 715.293 167.192 715.881 166.954C716.483 166.716 716.973 166.387 717.351 165.967C717.729 165.533 718.016 165.022 718.212 164.434C718.408 163.832 718.506 163.181 718.506 162.481Z" fill="black"/>
<rect x="4.5" y="0.5" width="1307" height="339" stroke="black" shape-rendering="crispEdges"/>
</g>
<defs>
<filter id="filter0_d_135_1035" x="0" y="0" width="1316" height="348" filterUnits="userSpaceOnUse" color-interpolation-filters="sRGB">
<feFlood flood-opacity="0" result="BackgroundImageFix"/>
<feColorMatrix in="SourceAlpha" type="matrix" values="0 0 0 0 0 0 0 0 0 0 0 0 0 0 0 0 0 0 127 0" result="hardAlpha"/>
<feOffset dy="4"/>
<feGaussianBlur stdDeviation="2"/>
<feComposite in2="hardAlpha" operator="out"/>
<feColorMatrix type="matrix" values="0 0 0 0 0 0 0 0 0 0 0 0 0 0 0 0 0 0 0.25 0"/>
<feBlend mode="normal" in2="BackgroundImageFix" result="effect1_dropShadow_135_1035"/>
<feBlend mode="normal" in="SourceGraphic" in2="effect1_dropShadow_135_1035" result="shape"/>
</filter>
</defs>
</svg>
