<svg width="37" height="37" viewBox="0 0 37 37" fill="none" xmlns="http://www.w3.org/2000/svg">
<path d="M8.95455 10.5455H9.5634C10.5883 10.5455 11.4488 11.3096 11.5599 12.3184L12.3743 19.71C12.4854 20.7188 13.3459 21.483 14.3708 21.483H23.0594C23.9775 21.483 24.7787 20.8666 25.0055 19.9857L26.3912 14.6054C26.7151 13.348 25.7556 12.1253 24.4451 12.1253H12.5696M12.5945 25.0873H13.3476M12.5945 25.833H13.3476M23.6406 25.0873H24.3937M23.6406 25.833H24.3937M36 18.5C36 28.165 28.165 36 18.5 36C8.83502 36 1 28.165 1 18.5C1 8.83502 8.83502 1 18.5 1C28.165 1 36 8.83502 36 18.5ZM13.9755 25.4602C13.9755 26.0094 13.5259 26.4545 12.9713 26.4545C12.4167 26.4545 11.9671 26.0094 11.9671 25.4602C11.9671 24.9111 12.4167 24.4659 12.9713 24.4659C13.5259 24.4659 13.9755 24.9111 13.9755 25.4602ZM25.0216 25.4602C25.0216 26.0094 24.572 26.4545 24.0174 26.4545C23.4628 26.4545 23.0132 26.0094 23.0132 25.4602C23.0132 24.9111 23.4628 24.4659 24.0174 24.4659C24.572 24.4659 25.0216 24.9111 25.0216 25.4602Z" stroke="black" stroke-width="2" stroke-linecap="round"/>
</svg>
