<svg width="310" height="70" viewBox="0 0 310 70" fill="none" xmlns="http://www.w3.org/2000/svg">
<rect width="310" height="70" fill="#8F1818"/>
<path d="M58.1143 42.6572C58.1143 42.7334 58.0973 42.7969 58.0635 42.8477C58.0296 42.8984 57.9704 42.9408 57.8857 42.9746C57.8096 43.0085 57.6995 43.0339 57.5557 43.0508C57.4118 43.0677 57.234 43.0762 57.0225 43.0762C56.777 43.0762 56.5781 43.0635 56.4258 43.0381C56.2819 43.0212 56.1634 42.9915 56.0703 42.9492C55.9857 42.9069 55.918 42.8561 55.8672 42.7969C55.8249 42.7292 55.791 42.6488 55.7656 42.5557L54.2549 38.5439C54.0518 38.0023 53.8275 37.541 53.582 37.1602C53.3366 36.7793 53.0531 36.4661 52.7314 36.2207C52.4183 35.9668 52.0586 35.7806 51.6523 35.6621C51.2461 35.5436 50.7891 35.4844 50.2812 35.4844H49.3672V42.6699C49.3672 42.7376 49.3503 42.7969 49.3164 42.8477C49.2826 42.8984 49.2233 42.9408 49.1387 42.9746C49.054 43 48.9398 43.0212 48.7959 43.0381C48.6605 43.0635 48.487 43.0762 48.2754 43.0762C48.0723 43.0762 47.8988 43.0635 47.7549 43.0381C47.611 43.0212 47.4967 43 47.4121 42.9746C47.3275 42.9408 47.2682 42.8984 47.2344 42.8477C47.2005 42.7969 47.1836 42.7376 47.1836 42.6699V26.8896C47.1836 26.8304 47.2005 26.7754 47.2344 26.7246C47.2682 26.6738 47.3275 26.6357 47.4121 26.6104C47.4967 26.5765 47.611 26.5511 47.7549 26.5342C47.8988 26.5088 48.0723 26.4961 48.2754 26.4961C48.487 26.4961 48.6605 26.5088 48.7959 26.5342C48.9398 26.5511 49.054 26.5765 49.1387 26.6104C49.2233 26.6357 49.2826 26.6738 49.3164 26.7246C49.3503 26.7754 49.3672 26.8304 49.3672 26.8896V33.6055H50.2812C50.7891 33.6055 51.2334 33.5462 51.6143 33.4277C51.9951 33.3008 52.3294 33.1146 52.6172 32.8691C52.9134 32.6237 53.1715 32.3148 53.3916 31.9424C53.6201 31.5615 53.8232 31.113 54.001 30.5967L55.2451 27.0166C55.2705 26.932 55.3044 26.8558 55.3467 26.7881C55.389 26.7204 55.4525 26.6654 55.5371 26.623C55.6217 26.5807 55.736 26.5511 55.8799 26.5342C56.0322 26.5088 56.2269 26.4961 56.4639 26.4961C56.6839 26.4961 56.8617 26.5046 56.9971 26.5215C57.1325 26.5384 57.2383 26.5638 57.3145 26.5977C57.3991 26.6315 57.4541 26.6738 57.4795 26.7246C57.5049 26.7754 57.5176 26.8346 57.5176 26.9023C57.5176 26.9954 57.5007 27.1012 57.4668 27.2197C57.4414 27.3298 57.4033 27.4609 57.3525 27.6133L56.0449 31.0283C55.8587 31.5446 55.6641 31.9889 55.4609 32.3613C55.2663 32.7337 55.0505 33.0553 54.8135 33.3262C54.5765 33.5885 54.3184 33.8086 54.0391 33.9863C53.7598 34.1556 53.4466 34.291 53.0996 34.3926V34.418C53.4974 34.5618 53.8486 34.7311 54.1533 34.9258C54.4665 35.112 54.7542 35.3447 55.0166 35.624C55.279 35.9033 55.5202 36.2419 55.7402 36.6396C55.9603 37.029 56.1761 37.4987 56.3877 38.0488L57.9365 41.959C58.0212 42.179 58.0719 42.3356 58.0889 42.4287C58.1058 42.5133 58.1143 42.5895 58.1143 42.6572ZM69.5654 42.6953C69.5654 42.7969 69.5316 42.873 69.4639 42.9238C69.3962 42.9746 69.3031 43.0127 69.1846 43.0381C69.0661 43.0635 68.8926 43.0762 68.6641 43.0762C68.444 43.0762 68.2663 43.0635 68.1309 43.0381C68.0039 43.0127 67.9108 42.9746 67.8516 42.9238C67.7923 42.873 67.7627 42.7969 67.7627 42.6953V41.5527C67.2633 42.0859 66.7048 42.5007 66.0869 42.7969C65.4775 43.0931 64.8301 43.2412 64.1445 43.2412C63.5436 43.2412 62.9977 43.1608 62.5068 43C62.0244 42.8477 61.6097 42.6234 61.2627 42.3271C60.9242 42.0309 60.6576 41.667 60.4629 41.2354C60.2767 40.8037 60.1836 40.3128 60.1836 39.7627C60.1836 39.1195 60.3148 38.5609 60.5771 38.0869C60.8395 37.613 61.2161 37.2194 61.707 36.9062C62.1979 36.5931 62.7988 36.3604 63.5098 36.208C64.2207 36.0472 65.0205 35.9668 65.9092 35.9668H67.4834V35.0781C67.4834 34.638 67.4368 34.2487 67.3438 33.9102C67.2507 33.5716 67.0983 33.2923 66.8867 33.0723C66.6836 32.8438 66.417 32.6745 66.0869 32.5645C65.7568 32.446 65.3506 32.3867 64.8682 32.3867C64.3519 32.3867 63.8864 32.4502 63.4717 32.5771C63.0654 32.6956 62.7057 32.8311 62.3926 32.9834C62.0879 33.1273 61.8298 33.2627 61.6182 33.3896C61.415 33.5081 61.2627 33.5674 61.1611 33.5674C61.0934 33.5674 61.0342 33.5505 60.9834 33.5166C60.9326 33.4827 60.8861 33.432 60.8438 33.3643C60.8099 33.2965 60.7845 33.2119 60.7676 33.1104C60.7507 33.0003 60.7422 32.8818 60.7422 32.7549C60.7422 32.5433 60.7549 32.3783 60.7803 32.2598C60.8141 32.1328 60.8861 32.0143 60.9961 31.9043C61.1146 31.7943 61.3135 31.6673 61.5928 31.5234C61.8721 31.3711 62.1937 31.2357 62.5576 31.1172C62.9215 30.9902 63.3193 30.8887 63.751 30.8125C64.1826 30.7279 64.6185 30.6855 65.0586 30.6855C65.8796 30.6855 66.5778 30.7786 67.1533 30.9648C67.7288 31.151 68.1943 31.4261 68.5498 31.79C68.9053 32.1455 69.1634 32.5898 69.3242 33.123C69.485 33.6562 69.5654 34.2783 69.5654 34.9893V42.6953ZM67.4834 37.4775H65.6934C65.1178 37.4775 64.6185 37.5283 64.1953 37.6299C63.7721 37.723 63.4209 37.8669 63.1416 38.0615C62.8623 38.2477 62.6549 38.4762 62.5195 38.7471C62.3926 39.0094 62.3291 39.3141 62.3291 39.6611C62.3291 40.2536 62.5153 40.7275 62.8877 41.083C63.2686 41.43 63.7975 41.6035 64.4746 41.6035C65.0247 41.6035 65.5326 41.4639 65.998 41.1846C66.472 40.9053 66.9671 40.4779 67.4834 39.9023V37.4775ZM81.3467 31.8789C81.3467 32.0482 81.3382 32.1921 81.3213 32.3105C81.3044 32.429 81.2747 32.5264 81.2324 32.6025C81.1986 32.6787 81.1562 32.738 81.1055 32.7803C81.0547 32.8141 80.9912 32.8311 80.915 32.8311H77.4873V42.6826C77.4873 42.7503 77.4704 42.8096 77.4365 42.8604C77.4027 42.9027 77.3477 42.9408 77.2715 42.9746C77.1953 43.0085 77.0895 43.0339 76.9541 43.0508C76.8187 43.0677 76.6452 43.0762 76.4336 43.0762C76.2305 43.0762 76.0612 43.0677 75.9258 43.0508C75.7904 43.0339 75.6803 43.0085 75.5957 42.9746C75.5195 42.9408 75.4645 42.9027 75.4307 42.8604C75.4053 42.8096 75.3926 42.7503 75.3926 42.6826V32.8311H71.9648C71.8971 32.8311 71.8337 32.8141 71.7744 32.7803C71.7236 32.738 71.6813 32.6787 71.6475 32.6025C71.6136 32.5264 71.584 32.429 71.5586 32.3105C71.5417 32.1836 71.5332 32.0355 71.5332 31.8662C71.5332 31.7139 71.5417 31.5785 71.5586 31.46C71.584 31.3415 71.6136 31.2441 71.6475 31.168C71.6898 31.0833 71.7363 31.0241 71.7871 30.9902C71.8379 30.9479 71.8971 30.9268 71.9648 30.9268H80.915C80.9827 30.9268 81.042 30.9479 81.0928 30.9902C81.152 31.0241 81.1986 31.0833 81.2324 31.168C81.2663 31.2441 81.2917 31.3457 81.3086 31.4727C81.334 31.5911 81.3467 31.7266 81.3467 31.8789ZM92.0361 42.6953C92.0361 42.7969 92.0023 42.873 91.9346 42.9238C91.8669 42.9746 91.7738 43.0127 91.6553 43.0381C91.5368 43.0635 91.3633 43.0762 91.1348 43.0762C90.9147 43.0762 90.737 43.0635 90.6016 43.0381C90.4746 43.0127 90.3815 42.9746 90.3223 42.9238C90.263 42.873 90.2334 42.7969 90.2334 42.6953V41.5527C89.734 42.0859 89.1755 42.5007 88.5576 42.7969C87.9482 43.0931 87.3008 43.2412 86.6152 43.2412C86.0143 43.2412 85.4684 43.1608 84.9775 43C84.4951 42.8477 84.0804 42.6234 83.7334 42.3271C83.3949 42.0309 83.1283 41.667 82.9336 41.2354C82.7474 40.8037 82.6543 40.3128 82.6543 39.7627C82.6543 39.1195 82.7855 38.5609 83.0479 38.0869C83.3102 37.613 83.6868 37.2194 84.1777 36.9062C84.6686 36.5931 85.2695 36.3604 85.9805 36.208C86.6914 36.0472 87.4912 35.9668 88.3799 35.9668H89.9541V35.0781C89.9541 34.638 89.9076 34.2487 89.8145 33.9102C89.7214 33.5716 89.569 33.2923 89.3574 33.0723C89.1543 32.8438 88.8877 32.6745 88.5576 32.5645C88.2275 32.446 87.8213 32.3867 87.3389 32.3867C86.8226 32.3867 86.3571 32.4502 85.9424 32.5771C85.5361 32.6956 85.1764 32.8311 84.8633 32.9834C84.5586 33.1273 84.3005 33.2627 84.0889 33.3896C83.8857 33.5081 83.7334 33.5674 83.6318 33.5674C83.5641 33.5674 83.5049 33.5505 83.4541 33.5166C83.4033 33.4827 83.3568 33.432 83.3145 33.3643C83.2806 33.2965 83.2552 33.2119 83.2383 33.1104C83.2214 33.0003 83.2129 32.8818 83.2129 32.7549C83.2129 32.5433 83.2256 32.3783 83.251 32.2598C83.2848 32.1328 83.3568 32.0143 83.4668 31.9043C83.5853 31.7943 83.7842 31.6673 84.0635 31.5234C84.3428 31.3711 84.6644 31.2357 85.0283 31.1172C85.3923 30.9902 85.79 30.8887 86.2217 30.8125C86.6533 30.7279 87.0892 30.6855 87.5293 30.6855C88.3503 30.6855 89.0485 30.7786 89.624 30.9648C90.1995 31.151 90.665 31.4261 91.0205 31.79C91.376 32.1455 91.6341 32.5898 91.7949 33.123C91.9557 33.6562 92.0361 34.2783 92.0361 34.9893V42.6953ZM89.9541 37.4775H88.1641C87.5885 37.4775 87.0892 37.5283 86.666 37.6299C86.2428 37.723 85.8916 37.8669 85.6123 38.0615C85.333 38.2477 85.1257 38.4762 84.9902 38.7471C84.8633 39.0094 84.7998 39.3141 84.7998 39.6611C84.7998 40.2536 84.986 40.7275 85.3584 41.083C85.7393 41.43 86.2682 41.6035 86.9453 41.6035C87.4954 41.6035 88.0033 41.4639 88.4688 41.1846C88.9427 40.9053 89.4378 40.4779 89.9541 39.9023V37.4775ZM105.277 42.6826C105.277 42.7503 105.26 42.8096 105.227 42.8604C105.193 42.9027 105.138 42.9408 105.062 42.9746C104.985 43.0085 104.88 43.0339 104.744 43.0508C104.609 43.0677 104.439 43.0762 104.236 43.0762C104.025 43.0762 103.851 43.0677 103.716 43.0508C103.58 43.0339 103.47 43.0085 103.386 42.9746C103.31 42.9408 103.255 42.9027 103.221 42.8604C103.187 42.8096 103.17 42.7503 103.17 42.6826V32.7041H100.021C99.8861 34.0498 99.721 35.2474 99.5264 36.2969C99.3402 37.3464 99.1286 38.2604 98.8916 39.0391C98.6546 39.8177 98.388 40.4736 98.0918 41.0068C97.7956 41.54 97.4697 41.9717 97.1143 42.3018C96.7673 42.6234 96.3864 42.8561 95.9717 43C95.5654 43.1439 95.1296 43.2158 94.6641 43.2158C94.5879 43.2158 94.5202 43.2031 94.4609 43.1777C94.4102 43.1523 94.3678 43.1058 94.334 43.0381C94.3001 42.9704 94.2747 42.8773 94.2578 42.7588C94.2409 42.6318 94.2324 42.471 94.2324 42.2764C94.2324 42.0732 94.2367 41.9082 94.2451 41.7812C94.262 41.6543 94.2832 41.5527 94.3086 41.4766C94.3424 41.4004 94.3805 41.3496 94.4229 41.3242C94.4736 41.2988 94.5329 41.2861 94.6006 41.2861C94.8799 41.2861 95.1465 41.2227 95.4004 41.0957C95.6543 40.9603 95.8913 40.7445 96.1113 40.4482C96.3314 40.1436 96.5387 39.75 96.7334 39.2676C96.9281 38.7767 97.1058 38.1758 97.2666 37.4648C97.4274 36.7539 97.5798 35.9245 97.7236 34.9766C97.8675 34.0202 98.0029 32.9242 98.1299 31.6885C98.1468 31.4346 98.2061 31.2484 98.3076 31.1299C98.4176 31.0029 98.57 30.9395 98.7646 30.9395H104.63C104.833 30.9395 104.99 31.0029 105.1 31.1299C105.218 31.2484 105.277 31.4346 105.277 31.6885V42.6826ZM119.801 36.8428C119.801 37.7738 119.678 38.6328 119.433 39.4199C119.187 40.1986 118.819 40.8714 118.328 41.4385C117.846 42.0055 117.236 42.4499 116.5 42.7715C115.772 43.0846 114.926 43.2412 113.961 43.2412C113.021 43.2412 112.201 43.1016 111.498 42.8223C110.804 42.543 110.224 42.1367 109.759 41.6035C109.293 41.0703 108.946 40.4229 108.718 39.6611C108.489 38.8994 108.375 38.0361 108.375 37.0713C108.375 36.1403 108.493 35.2855 108.73 34.5068C108.976 33.7197 109.34 33.0426 109.822 32.4756C110.313 31.9085 110.923 31.4684 111.65 31.1553C112.378 30.8421 113.229 30.6855 114.202 30.6855C115.142 30.6855 115.958 30.8252 116.652 31.1045C117.355 31.3838 117.939 31.79 118.404 32.3232C118.87 32.8564 119.217 33.5039 119.445 34.2656C119.682 35.0273 119.801 35.8864 119.801 36.8428ZM117.592 36.9824C117.592 36.3646 117.533 35.7806 117.414 35.2305C117.304 34.6803 117.118 34.1979 116.855 33.7832C116.593 33.3685 116.238 33.0426 115.789 32.8057C115.34 32.5602 114.782 32.4375 114.113 32.4375C113.495 32.4375 112.962 32.5475 112.514 32.7676C112.074 32.9876 111.71 33.3008 111.422 33.707C111.134 34.1048 110.918 34.5788 110.774 35.1289C110.639 35.679 110.571 36.2799 110.571 36.9316C110.571 37.5579 110.626 38.1462 110.736 38.6963C110.855 39.2464 111.045 39.7288 111.308 40.1436C111.578 40.5498 111.938 40.8757 112.387 41.1211C112.835 41.3581 113.394 41.4766 114.062 41.4766C114.672 41.4766 115.201 41.3665 115.649 41.1465C116.098 40.9264 116.466 40.6175 116.754 40.2197C117.042 39.8219 117.253 39.348 117.389 38.7979C117.524 38.2477 117.592 37.6426 117.592 36.9824ZM129.703 31.8662C129.703 32.0355 129.69 32.1794 129.665 32.2979C129.648 32.4163 129.618 32.5137 129.576 32.5898C129.542 32.666 129.5 32.721 129.449 32.7549C129.407 32.7887 129.352 32.8057 129.284 32.8057H124.98V42.6826C124.98 42.7503 124.964 42.8096 124.93 42.8604C124.896 42.9027 124.841 42.9408 124.765 42.9746C124.688 43.0085 124.583 43.0339 124.447 43.0508C124.312 43.0677 124.138 43.0762 123.927 43.0762C123.724 43.0762 123.554 43.0677 123.419 43.0508C123.284 43.0339 123.174 43.0085 123.089 42.9746C123.013 42.9408 122.958 42.9027 122.924 42.8604C122.898 42.8096 122.886 42.7503 122.886 42.6826V31.6758C122.886 31.4219 122.941 31.2357 123.051 31.1172C123.169 30.9902 123.33 30.9268 123.533 30.9268H129.284C129.352 30.9268 129.407 30.9479 129.449 30.9902C129.5 31.0241 129.542 31.0833 129.576 31.168C129.618 31.2441 129.648 31.3415 129.665 31.46C129.69 31.57 129.703 31.7054 129.703 31.8662ZM145.763 31.8789C145.763 32.0482 145.754 32.1921 145.737 32.3105C145.72 32.429 145.691 32.5264 145.648 32.6025C145.615 32.6787 145.572 32.738 145.521 32.7803C145.471 32.8141 145.407 32.8311 145.331 32.8311H141.903V42.6826C141.903 42.7503 141.886 42.8096 141.853 42.8604C141.819 42.9027 141.764 42.9408 141.688 42.9746C141.611 43.0085 141.506 43.0339 141.37 43.0508C141.235 43.0677 141.061 43.0762 140.85 43.0762C140.646 43.0762 140.477 43.0677 140.342 43.0508C140.206 43.0339 140.096 43.0085 140.012 42.9746C139.936 42.9408 139.881 42.9027 139.847 42.8604C139.821 42.8096 139.809 42.7503 139.809 42.6826V32.8311H136.381C136.313 32.8311 136.25 32.8141 136.19 32.7803C136.14 32.738 136.097 32.6787 136.063 32.6025C136.03 32.5264 136 32.429 135.975 32.3105C135.958 32.1836 135.949 32.0355 135.949 31.8662C135.949 31.7139 135.958 31.5785 135.975 31.46C136 31.3415 136.03 31.2441 136.063 31.168C136.106 31.0833 136.152 31.0241 136.203 30.9902C136.254 30.9479 136.313 30.9268 136.381 30.9268H145.331C145.399 30.9268 145.458 30.9479 145.509 30.9902C145.568 31.0241 145.615 31.0833 145.648 31.168C145.682 31.2441 145.708 31.3457 145.725 31.4727C145.75 31.5911 145.763 31.7266 145.763 31.8789ZM158.166 36.8428C158.166 37.7738 158.043 38.6328 157.798 39.4199C157.552 40.1986 157.184 40.8714 156.693 41.4385C156.211 42.0055 155.602 42.4499 154.865 42.7715C154.137 43.0846 153.291 43.2412 152.326 43.2412C151.387 43.2412 150.566 43.1016 149.863 42.8223C149.169 42.543 148.59 42.1367 148.124 41.6035C147.659 41.0703 147.312 40.4229 147.083 39.6611C146.854 38.8994 146.74 38.0361 146.74 37.0713C146.74 36.1403 146.859 35.2855 147.096 34.5068C147.341 33.7197 147.705 33.0426 148.188 32.4756C148.678 31.9085 149.288 31.4684 150.016 31.1553C150.743 30.8421 151.594 30.6855 152.567 30.6855C153.507 30.6855 154.324 30.8252 155.018 31.1045C155.72 31.3838 156.304 31.79 156.77 32.3232C157.235 32.8564 157.582 33.5039 157.811 34.2656C158.048 35.0273 158.166 35.8864 158.166 36.8428ZM155.957 36.9824C155.957 36.3646 155.898 35.7806 155.779 35.2305C155.669 34.6803 155.483 34.1979 155.221 33.7832C154.958 33.3685 154.603 33.0426 154.154 32.8057C153.706 32.5602 153.147 32.4375 152.479 32.4375C151.861 32.4375 151.327 32.5475 150.879 32.7676C150.439 32.9876 150.075 33.3008 149.787 33.707C149.499 34.1048 149.284 34.5788 149.14 35.1289C149.004 35.679 148.937 36.2799 148.937 36.9316C148.937 37.5579 148.992 38.1462 149.102 38.6963C149.22 39.2464 149.41 39.7288 149.673 40.1436C149.944 40.5498 150.303 40.8757 150.752 41.1211C151.201 41.3581 151.759 41.4766 152.428 41.4766C153.037 41.4766 153.566 41.3665 154.015 41.1465C154.463 40.9264 154.831 40.6175 155.119 40.2197C155.407 39.8219 155.618 39.348 155.754 38.7979C155.889 38.2477 155.957 37.6426 155.957 36.9824ZM170.633 39.3945C170.633 39.9954 170.519 40.5329 170.29 41.0068C170.062 41.4723 169.723 41.8659 169.274 42.1875C168.826 42.5007 168.267 42.7419 167.599 42.9111C166.93 43.0719 166.151 43.1523 165.263 43.1523C164.983 43.1523 164.713 43.1481 164.45 43.1396C164.188 43.1396 163.934 43.1312 163.688 43.1143C163.443 43.1058 163.198 43.0931 162.952 43.0762C162.715 43.0592 162.478 43.0381 162.241 43.0127C161.903 42.9704 161.653 42.8604 161.492 42.6826C161.331 42.4964 161.251 42.2256 161.251 41.8701V32.0312C161.251 31.6842 161.327 31.4176 161.479 31.2314C161.64 31.0452 161.882 30.9352 162.203 30.9014C162.423 30.876 162.656 30.8548 162.901 30.8379C163.155 30.821 163.413 30.8083 163.676 30.7998C163.938 30.7829 164.209 30.7702 164.488 30.7617C164.768 30.7533 165.051 30.749 165.339 30.749C166.16 30.749 166.871 30.8167 167.472 30.9521C168.073 31.0876 168.572 31.2865 168.97 31.5488C169.368 31.8112 169.66 32.1328 169.846 32.5137C170.04 32.8945 170.138 33.3304 170.138 33.8213C170.138 34.4645 169.964 35.0146 169.617 35.4717C169.279 35.9287 168.775 36.2546 168.106 36.4492C168.944 36.627 169.575 36.9697 169.998 37.4775C170.421 37.9854 170.633 38.6243 170.633 39.3945ZM168.106 34.0879C168.106 33.8086 168.056 33.5589 167.954 33.3389C167.853 33.1188 167.683 32.9326 167.446 32.7803C167.218 32.6279 166.917 32.5137 166.545 32.4375C166.181 32.3613 165.737 32.3232 165.212 32.3232C164.814 32.3232 164.45 32.3359 164.12 32.3613C163.79 32.3783 163.511 32.3994 163.282 32.4248V35.9795H165.415C166.287 35.9795 166.951 35.8187 167.408 35.4971C167.874 35.167 168.106 34.6973 168.106 34.0879ZM168.487 39.4326C168.487 39.0941 168.428 38.7979 168.31 38.5439C168.191 38.2816 168.001 38.0658 167.738 37.8965C167.484 37.7272 167.154 37.6003 166.748 37.5156C166.35 37.431 165.876 37.3887 165.326 37.3887H163.282V41.4385C163.443 41.4639 163.608 41.485 163.777 41.502C163.955 41.5104 164.133 41.5231 164.311 41.54C164.497 41.5485 164.679 41.557 164.856 41.5654C165.043 41.5739 165.212 41.5781 165.364 41.5781C165.914 41.5781 166.384 41.5316 166.773 41.4385C167.163 41.3369 167.484 41.193 167.738 41.0068C168.001 40.8206 168.191 40.5964 168.31 40.334C168.428 40.0632 168.487 39.7627 168.487 39.4326ZM182.325 42.6953C182.325 42.7969 182.291 42.873 182.224 42.9238C182.156 42.9746 182.063 43.0127 181.944 43.0381C181.826 43.0635 181.652 43.0762 181.424 43.0762C181.204 43.0762 181.026 43.0635 180.891 43.0381C180.764 43.0127 180.671 42.9746 180.611 42.9238C180.552 42.873 180.522 42.7969 180.522 42.6953V41.5527C180.023 42.0859 179.465 42.5007 178.847 42.7969C178.237 43.0931 177.59 43.2412 176.904 43.2412C176.303 43.2412 175.757 43.1608 175.267 43C174.784 42.8477 174.369 42.6234 174.022 42.3271C173.684 42.0309 173.417 41.667 173.223 41.2354C173.036 40.8037 172.943 40.3128 172.943 39.7627C172.943 39.1195 173.075 38.5609 173.337 38.0869C173.599 37.613 173.976 37.2194 174.467 36.9062C174.958 36.5931 175.559 36.3604 176.27 36.208C176.98 36.0472 177.78 35.9668 178.669 35.9668H180.243V35.0781C180.243 34.638 180.197 34.2487 180.104 33.9102C180.01 33.5716 179.858 33.2923 179.646 33.0723C179.443 32.8438 179.177 32.6745 178.847 32.5645C178.517 32.446 178.11 32.3867 177.628 32.3867C177.112 32.3867 176.646 32.4502 176.231 32.5771C175.825 32.6956 175.465 32.8311 175.152 32.9834C174.848 33.1273 174.59 33.2627 174.378 33.3896C174.175 33.5081 174.022 33.5674 173.921 33.5674C173.853 33.5674 173.794 33.5505 173.743 33.5166C173.692 33.4827 173.646 33.432 173.604 33.3643C173.57 33.2965 173.544 33.2119 173.527 33.1104C173.51 33.0003 173.502 32.8818 173.502 32.7549C173.502 32.5433 173.515 32.3783 173.54 32.2598C173.574 32.1328 173.646 32.0143 173.756 31.9043C173.874 31.7943 174.073 31.6673 174.353 31.5234C174.632 31.3711 174.953 31.2357 175.317 31.1172C175.681 30.9902 176.079 30.8887 176.511 30.8125C176.942 30.7279 177.378 30.6855 177.818 30.6855C178.639 30.6855 179.338 30.7786 179.913 30.9648C180.489 31.151 180.954 31.4261 181.31 31.79C181.665 32.1455 181.923 32.5898 182.084 33.123C182.245 33.6562 182.325 34.2783 182.325 34.9893V42.6953ZM180.243 37.4775H178.453C177.878 37.4775 177.378 37.5283 176.955 37.6299C176.532 37.723 176.181 37.8669 175.901 38.0615C175.622 38.2477 175.415 38.4762 175.279 38.7471C175.152 39.0094 175.089 39.3141 175.089 39.6611C175.089 40.2536 175.275 40.7275 175.647 41.083C176.028 41.43 176.557 41.6035 177.234 41.6035C177.785 41.6035 178.292 41.4639 178.758 41.1846C179.232 40.9053 179.727 40.4779 180.243 39.9023V37.4775ZM196.696 36.792C196.696 37.7907 196.586 38.6878 196.366 39.4834C196.155 40.279 195.837 40.9561 195.414 41.5146C194.999 42.0648 194.483 42.4922 193.865 42.7969C193.247 43.0931 192.541 43.2412 191.745 43.2412C191.407 43.2412 191.093 43.2074 190.806 43.1396C190.518 43.0719 190.234 42.9661 189.955 42.8223C189.684 42.6784 189.413 42.4964 189.143 42.2764C188.872 42.0563 188.584 41.7982 188.279 41.502V47.2148C188.279 47.2826 188.262 47.3418 188.229 47.3926C188.195 47.4434 188.14 47.4857 188.063 47.5195C187.987 47.5534 187.882 47.5788 187.746 47.5957C187.611 47.6126 187.437 47.6211 187.226 47.6211C187.022 47.6211 186.853 47.6126 186.718 47.5957C186.582 47.5788 186.472 47.5534 186.388 47.5195C186.312 47.4857 186.257 47.4434 186.223 47.3926C186.197 47.3418 186.185 47.2826 186.185 47.2148V31.2568C186.185 31.1807 186.197 31.1214 186.223 31.0791C186.248 31.0283 186.299 30.986 186.375 30.9521C186.451 30.9183 186.549 30.8971 186.667 30.8887C186.785 30.8717 186.929 30.8633 187.099 30.8633C187.276 30.8633 187.42 30.8717 187.53 30.8887C187.649 30.8971 187.746 30.9183 187.822 30.9521C187.898 30.986 187.949 31.0283 187.975 31.0791C188.008 31.1214 188.025 31.1807 188.025 31.2568V32.793C188.372 32.4375 188.707 32.1286 189.028 31.8662C189.35 31.6038 189.672 31.388 189.993 31.2188C190.323 31.041 190.658 30.9098 190.996 30.8252C191.343 30.7321 191.707 30.6855 192.088 30.6855C192.917 30.6855 193.624 30.8464 194.208 31.168C194.792 31.4896 195.266 31.9297 195.63 32.4883C196.002 33.0469 196.273 33.6986 196.442 34.4434C196.612 35.1797 196.696 35.9626 196.696 36.792ZM194.487 37.0332C194.487 36.4492 194.441 35.8864 194.348 35.3447C194.263 34.7946 194.111 34.3079 193.891 33.8848C193.679 33.4616 193.391 33.123 193.027 32.8691C192.663 32.6152 192.211 32.4883 191.669 32.4883C191.398 32.4883 191.132 32.5306 190.869 32.6152C190.607 32.6914 190.34 32.8184 190.069 32.9961C189.799 33.1654 189.515 33.3939 189.219 33.6816C188.923 33.9609 188.609 34.3079 188.279 34.7227V39.2676C188.855 39.9701 189.401 40.5075 189.917 40.8799C190.433 41.2523 190.975 41.4385 191.542 41.4385C192.067 41.4385 192.515 41.3115 192.888 41.0576C193.269 40.8037 193.573 40.4652 193.802 40.042C194.039 39.6188 194.212 39.1449 194.322 38.6201C194.432 38.0954 194.487 37.5664 194.487 37.0332ZM210.471 36.8428C210.471 37.7738 210.348 38.6328 210.103 39.4199C209.857 40.1986 209.489 40.8714 208.998 41.4385C208.516 42.0055 207.906 42.4499 207.17 42.7715C206.442 43.0846 205.596 43.2412 204.631 43.2412C203.691 43.2412 202.87 43.1016 202.168 42.8223C201.474 42.543 200.894 42.1367 200.429 41.6035C199.963 41.0703 199.616 40.4229 199.388 39.6611C199.159 38.8994 199.045 38.0361 199.045 37.0713C199.045 36.1403 199.163 35.2855 199.4 34.5068C199.646 33.7197 200.01 33.0426 200.492 32.4756C200.983 31.9085 201.592 31.4684 202.32 31.1553C203.048 30.8421 203.899 30.6855 204.872 30.6855C205.812 30.6855 206.628 30.8252 207.322 31.1045C208.025 31.3838 208.609 31.79 209.074 32.3232C209.54 32.8564 209.887 33.5039 210.115 34.2656C210.352 35.0273 210.471 35.8864 210.471 36.8428ZM208.262 36.9824C208.262 36.3646 208.202 35.7806 208.084 35.2305C207.974 34.6803 207.788 34.1979 207.525 33.7832C207.263 33.3685 206.908 33.0426 206.459 32.8057C206.01 32.5602 205.452 32.4375 204.783 32.4375C204.165 32.4375 203.632 32.5475 203.184 32.7676C202.743 32.9876 202.38 33.3008 202.092 33.707C201.804 34.1048 201.588 34.5788 201.444 35.1289C201.309 35.679 201.241 36.2799 201.241 36.9316C201.241 37.5579 201.296 38.1462 201.406 38.6963C201.525 39.2464 201.715 39.7288 201.978 40.1436C202.248 40.5498 202.608 40.8757 203.057 41.1211C203.505 41.3581 204.064 41.4766 204.732 41.4766C205.342 41.4766 205.871 41.3665 206.319 41.1465C206.768 40.9264 207.136 40.6175 207.424 40.2197C207.712 39.8219 207.923 39.348 208.059 38.7979C208.194 38.2477 208.262 37.6426 208.262 36.9824ZM222.938 39.3945C222.938 39.9954 222.823 40.5329 222.595 41.0068C222.366 41.4723 222.028 41.8659 221.579 42.1875C221.131 42.5007 220.572 42.7419 219.903 42.9111C219.235 43.0719 218.456 43.1523 217.567 43.1523C217.288 43.1523 217.017 43.1481 216.755 43.1396C216.493 43.1396 216.239 43.1312 215.993 43.1143C215.748 43.1058 215.502 43.0931 215.257 43.0762C215.02 43.0592 214.783 43.0381 214.546 43.0127C214.207 42.9704 213.958 42.8604 213.797 42.6826C213.636 42.4964 213.556 42.2256 213.556 41.8701V32.0312C213.556 31.6842 213.632 31.4176 213.784 31.2314C213.945 31.0452 214.186 30.9352 214.508 30.9014C214.728 30.876 214.961 30.8548 215.206 30.8379C215.46 30.821 215.718 30.8083 215.98 30.7998C216.243 30.7829 216.514 30.7702 216.793 30.7617C217.072 30.7533 217.356 30.749 217.644 30.749C218.465 30.749 219.175 30.8167 219.776 30.9521C220.377 31.0876 220.877 31.2865 221.274 31.5488C221.672 31.8112 221.964 32.1328 222.15 32.5137C222.345 32.8945 222.442 33.3304 222.442 33.8213C222.442 34.4645 222.269 35.0146 221.922 35.4717C221.583 35.9287 221.08 36.2546 220.411 36.4492C221.249 36.627 221.88 36.9697 222.303 37.4775C222.726 37.9854 222.938 38.6243 222.938 39.3945ZM220.411 34.0879C220.411 33.8086 220.36 33.5589 220.259 33.3389C220.157 33.1188 219.988 32.9326 219.751 32.7803C219.522 32.6279 219.222 32.5137 218.85 32.4375C218.486 32.3613 218.041 32.3232 217.517 32.3232C217.119 32.3232 216.755 32.3359 216.425 32.3613C216.095 32.3783 215.815 32.3994 215.587 32.4248V35.9795H217.72C218.591 35.9795 219.256 35.8187 219.713 35.4971C220.178 35.167 220.411 34.6973 220.411 34.0879ZM220.792 39.4326C220.792 39.0941 220.733 38.7979 220.614 38.5439C220.496 38.2816 220.305 38.0658 220.043 37.8965C219.789 37.7272 219.459 37.6003 219.053 37.5156C218.655 37.431 218.181 37.3887 217.631 37.3887H215.587V41.4385C215.748 41.4639 215.913 41.485 216.082 41.502C216.26 41.5104 216.438 41.5231 216.615 41.54C216.801 41.5485 216.983 41.557 217.161 41.5654C217.347 41.5739 217.517 41.5781 217.669 41.5781C218.219 41.5781 218.689 41.5316 219.078 41.4385C219.467 41.3369 219.789 41.193 220.043 41.0068C220.305 40.8206 220.496 40.5964 220.614 40.334C220.733 40.0632 220.792 39.7627 220.792 39.4326Z" fill="white"/>
<path d="M23 30H39M23 35.3333H39M23 40.6667H39" stroke="white" stroke-width="2" stroke-linecap="round"/>
</svg>
