<svg width="35" height="35" viewBox="0 0 35 35" fill="none" xmlns="http://www.w3.org/2000/svg">
<g clip-path="url(#clip0_157_371)">
<path d="M28.5946 27.9908C28.0162 26.8575 27.2528 25.7943 26.3046 24.846C21.442 19.9835 13.5582 19.9835 8.69565 24.846C7.74736 25.7943 6.98401 26.8575 6.40559 27.9908M1.45834 17.5C1.45834 8.64042 8.64044 1.45833 17.5 1.45833C26.3596 1.45833 33.5417 8.64043 33.5417 17.5C33.5417 26.3596 26.3596 33.5417 17.5 33.5417C8.64044 33.5417 1.45834 26.3596 1.45834 17.5ZM23.3333 14.5833C23.3333 17.805 20.7217 20.4167 17.5 20.4167C14.2784 20.4167 11.6667 17.805 11.6667 14.5833C11.6667 11.3617 14.2784 8.74999 17.5 8.74999C20.7217 8.74999 23.3333 11.3617 23.3333 14.5833Z" stroke="black" stroke-width="2"/>
</g>
<defs>
<clipPath id="clip0_157_371">
<rect width="35" height="35" fill="white"/>
</clipPath>
</defs>
</svg>
