<svg width="38" height="38" viewBox="0 0 38 38" fill="none" xmlns="http://www.w3.org/2000/svg">
<path d="M14.2188 15.4457C15.2257 17.5428 16.5983 19.5084 18.3366 21.2467C20.075 22.9851 22.0405 24.3577 24.1377 25.3646C24.3181 25.4512 24.4083 25.4945 24.5224 25.5278C24.928 25.646 25.4261 25.5611 25.7696 25.3151C25.8662 25.2459 25.9489 25.1632 26.1143 24.9978C26.6201 24.4921 26.8729 24.2392 27.1272 24.0738C28.0862 23.4503 29.3226 23.4503 30.2816 24.0738C30.5359 24.2392 30.7888 24.4921 31.2946 24.9979L31.5765 25.2798C32.3453 26.0486 32.7297 26.433 32.9386 26.8459C33.3539 27.667 33.3539 28.6367 32.9386 29.4578C32.7297 29.8706 32.3453 30.255 31.5765 31.0239L31.3484 31.2519C30.5822 32.0182 30.1991 32.4013 29.6782 32.6938C29.1003 33.0185 28.2026 33.252 27.5397 33.25C26.9423 33.2482 26.534 33.1323 25.7174 32.9006C21.329 31.655 17.188 29.3048 13.7332 25.8501C10.2785 22.3954 7.9284 18.2544 6.68282 13.866C6.45105 13.0494 6.33516 12.6411 6.33339 12.0437C6.33141 11.3808 6.56486 10.4831 6.88953 9.90513C7.18212 9.38427 7.56523 9.00116 8.33144 8.23495L8.55949 8.0069C9.32833 7.23806 9.71275 6.85364 10.1256 6.64482C10.9467 6.22951 11.9164 6.22951 12.7375 6.64482C13.1503 6.85364 13.5348 7.23806 14.3036 8.0069L14.5855 8.28882C15.0913 8.7946 15.3442 9.04749 15.5095 9.30179C16.1331 10.2608 16.1331 11.4971 15.5095 12.4561C15.3442 12.7104 15.0913 12.9633 14.5855 13.4691C14.4202 13.6345 14.3375 13.7172 14.2683 13.8138C14.0223 14.1573 13.9374 14.6554 14.0556 15.0609C14.0889 15.1751 14.1322 15.2653 14.2188 15.4457Z" stroke="#070101" stroke-width="2" stroke-linecap="round" stroke-linejoin="round"/>
</svg>
