<svg width="38" height="38" viewBox="0 0 38 38" fill="none" xmlns="http://www.w3.org/2000/svg">
<path d="M14.2188 15.4457C15.2257 17.5429 16.5983 19.5084 18.3366 21.2468C20.075 22.9851 22.0405 24.3577 24.1377 25.3646C24.3181 25.4512 24.4083 25.4945 24.5224 25.5278C24.928 25.646 25.4261 25.5611 25.7696 25.3152C25.8662 25.246 25.9489 25.1633 26.1143 24.9979C26.6201 24.4921 26.8729 24.2392 27.1272 24.0739C28.0862 23.4504 29.3226 23.4504 30.2816 24.0739C30.5359 24.2392 30.7888 24.4921 31.2946 24.9979L31.5765 25.2798C32.3453 26.0486 32.7297 26.4331 32.9386 26.8459C33.3539 27.667 33.3539 28.6367 32.9386 29.4578C32.7297 29.8707 32.3453 30.2551 31.5765 31.0239L31.3484 31.252C30.5822 32.0182 30.1991 32.4013 29.6782 32.6939C29.1003 33.0186 28.2026 33.252 27.5397 33.25C26.9423 33.2483 26.534 33.1324 25.7174 32.9006C21.329 31.655 17.188 29.3049 13.7332 25.8502C10.2785 22.3955 7.9284 18.2545 6.68282 13.866C6.45105 13.0494 6.33516 12.6411 6.33339 12.0437C6.33141 11.3808 6.56486 10.4831 6.88953 9.90517C7.18212 9.38431 7.56523 9.0012 8.33144 8.23499L8.55949 8.00694C9.32833 7.2381 9.71275 6.85368 10.1256 6.64485C10.9467 6.22955 11.9164 6.22955 12.7375 6.64485C13.1503 6.85368 13.5348 7.2381 14.3036 8.00694L14.5855 8.28886C15.0913 8.79464 15.3442 9.04753 15.5095 9.30183C16.1331 10.2608 16.1331 11.4972 15.5095 12.4562C15.3442 12.7105 15.0913 12.9634 14.5855 13.4691C14.4202 13.6345 14.3375 13.7172 14.2683 13.8139C14.0223 14.1574 13.9374 14.6554 14.0556 15.061C14.0889 15.1751 14.1322 15.2653 14.2188 15.4457Z" stroke="white" stroke-width="2" stroke-linecap="round" stroke-linejoin="round"/>
</svg>
